<svg xmlns="http://www.w3.org/2000/svg" version="1.1" xmlns:xlink="http://www.w3.org/1999/xlink" xmlns:svgjs="http://svgjs.dev/svgjs" width="1000" height="623" viewBox="0 0 1000 623"><g transform="matrix(1,0,0,1,-0.6060606060606233,104.74529178423916)"><svg viewBox="0 0 396 247" data-background-color="#ed1703" preserveAspectRatio="xMidYMid meet" height="623" width="1000" xmlns="http://www.w3.org/2000/svg" xmlns:xlink="http://www.w3.org/1999/xlink"><g id="tight-bounds" transform="matrix(1,0,0,1,0.2400000000000091,-0.09999999999999432)"><svg viewBox="0 0 395.52 247.2" height="247.2" width="395.52"><g><svg></svg></g><g><svg viewBox="0 0 395.52 247.2" height="247.2" width="395.52"><g transform="matrix(1,0,0,1,75.54432000000001,85.17989463414635)"><svg viewBox="0 0 244.43135999999996 76.84021073170729" height="76.84021073170729" width="244.43135999999996"><g><svg viewBox="0 0 244.43135999999996 76.84021073170729" height="76.84021073170729" width="244.43135999999996"><g><svg viewBox="0 0 244.43135999999996 76.84021073170729" height="76.84021073170729" width="244.43135999999996"><g><svg viewBox="0 0 244.43135999999996 76.84021073170729" height="76.84021073170729" width="244.43135999999996"><g id="textblocktransform"><svg viewBox="0 0 244.43135999999996 76.84021073170729" height="76.84021073170729" width="244.43135999999996" id="textblock"><g><svg viewBox="0 0 244.43135999999996 76.84021073170729" height="76.84021073170729" width="244.43135999999996"><g transform="matrix(1,0,0,1,0,0)"><svg width="244.43135999999996" viewBox="2.0999999046325684 -34.5 110.69000244140625 34.79999923706055" height="76.84021073170729" data-palette-color="#ffffff"><path d="M11.25 0.3L11.25 0.3Q7.3 0.3 4.7-2.93 2.1-6.15 2.1-11.75L2.1-11.75Q2.1-17.45 4.67-20.83 7.25-24.2 11.25-24.2L11.25-24.2Q15.3-24.2 18.75-21.35L18.75-21.35Q20.1-23.85 23.1-23.85L23.1-23.85Q25.8-23.85 27.3-22.68 28.8-21.5 28.8-18.35L28.8-18.35 28.8-5.35Q28.8-2.35 27.55-1.18 26.3 0 23.15 0L23.15 0Q19.85 0 18.8-1.85L18.8-1.85Q15.6 0.3 11.25 0.3ZM18.05-7.2L18.05-16.55Q17.2-18 15.85-18L15.85-18Q14.55-18 13.75-16.1 12.95-14.2 12.95-11.75L12.95-11.75Q12.95-9.45 13.7-7.65 14.45-5.85 15.8-5.85L15.8-5.85Q17.2-5.85 18.05-7.2L18.05-7.2ZM49.2-4.15L49.15-13.4Q49.15-16.25 46.95-16.25L46.95-16.25Q46.55-16.25 46.22-16.15 45.9-16.05 45.62-15.9 45.35-15.75 45.12-15.48 44.9-15.2 44.72-14.88 44.55-14.55 44.47-14.1 44.4-13.65 44.4-13.1L44.4-13.1 44.4-7.6Q44.4-3.5 43.07-1.78 41.75-0.05 39.05-0.05L39.05-0.05Q36.25-0.05 34.95-1.63 33.65-3.2 33.65-7.2L33.65-7.2 33.55-28.5Q33.55-31.6 35.05-33.05 36.55-34.5 39.05-34.5L39.05-34.5Q41.7-34.5 43.05-33.4 44.4-32.3 44.4-28.95L44.4-28.95 44.4-21.7Q48.1-23.95 53.4-23.95L53.4-23.95Q55.8-23.95 57.25-22.73 58.7-21.5 59.4-18.85 60.1-16.2 60.1-11.9L60.1-11.9Q60.1-9.7 60.02-8.1 59.95-6.5 59.8-5.18 59.65-3.85 59.35-3 59.05-2.15 58.65-1.55 58.25-0.95 57.62-0.63 57-0.3 56.25-0.15 55.5 0 54.45 0L54.45 0Q51.65 0 50.42-1.03 49.2-2.05 49.2-4.15L49.2-4.15ZM79.35-26.3L79.35-26.3Q78.3-25.45 78.3-22.35L78.3-22.35Q81.65-22.35 82.95-21.73 84.25-21.1 84.25-19L84.25-19Q84.25-17.3 82.85-16.78 81.45-16.25 78.3-16.25L78.3-16.25 78.3-7.5Q78.3-3.25 76.97-1.63 75.65 0 72.8 0L72.8 0Q70 0 68.7-1.58 67.4-3.15 67.4-7.15L67.4-7.15 67.45-16.25Q63.75-16.3 63.75-19.15L63.75-19.15Q63.75-22.1 67.5-22.3L67.5-22.3Q67.55-28.75 69.37-31.48 71.2-34.2 76.4-34.2L76.4-34.2Q80.55-34.2 82.87-32.5 85.2-30.8 85.2-29.05L85.2-29.05Q85.2-28.3 84.57-27.73 83.95-27.15 82.8-27.15L82.8-27.15Q80.35-27.15 79.35-26.3ZM95.24 0.3L95.24 0.3Q91.29 0.3 88.69-2.93 86.09-6.15 86.09-11.75L86.09-11.75Q86.09-17.45 88.67-20.83 91.24-24.2 95.24-24.2L95.24-24.2Q99.29-24.2 102.74-21.35L102.74-21.35Q104.09-23.85 107.09-23.85L107.09-23.85Q109.79-23.85 111.29-22.68 112.79-21.5 112.79-18.35L112.79-18.35 112.79-5.35Q112.79-2.35 111.54-1.18 110.29 0 107.14 0L107.14 0Q103.84 0 102.79-1.85L102.79-1.85Q99.59 0.3 95.24 0.3ZM102.04-7.2L102.04-16.55Q101.19-18 99.84-18L99.84-18Q98.54-18 97.74-16.1 96.94-14.2 96.94-11.75L96.94-11.75Q96.94-9.45 97.69-7.65 98.44-5.85 99.79-5.85L99.79-5.85Q101.19-5.85 102.04-7.2L102.04-7.2Z" opacity="1" transform="matrix(1,0,0,1,0,0)" fill="#ffffff" class="wordmark-text-0" data-fill-palette-color="primary" id="text-0"></path></svg></g></svg></g></svg></g></svg></g><g></g></svg></g></svg></g></svg></g><g><path d="M89.42 67.04A122.216 122.216 0 0 1 306.1 67.04L299.171 67.04A115.286 115.286 0 0 0 96.349 67.04L89.42 67.04M89.42 180.16A122.216 122.216 0 0 0 306.1 180.16L299.171 180.16A115.286 115.286 0 0 1 96.349 180.16L89.42 180.16" fill="#ffffff" stroke="transparent" data-fill-palette-color="tertiary"></path></g></svg></g><defs></defs></svg><rect width="395.52" height="247.2" fill="none" stroke="none" visibility="hidden"></rect></g></svg></g></svg>